<!DOCTYPE svg PUBLIC "-//W3C//DTD SVG 1.1//EN" "http://www.w3.org/Graphics/SVG/1.1/DTD/svg11.dtd">
<!-- Uploaded to: SVG Repo, www.svgrepo.com, Transformed by: SVG Repo Mixer Tools -->
<svg height="800px" width="800px" version="1.1" id="Layer_1" xmlns="http://www.w3.org/2000/svg" xmlns:xlink="http://www.w3.org/1999/xlink" viewBox="-51.2 -51.2 614.40 614.40" xml:space="preserve" fill="#000000" stroke="#000000" stroke-width="0.00512" transform="matrix(1, 0, 0, 1, 0, 0)rotate(0)">
<g id="SVGRepo_bgCarrier" stroke-width="0">
<path transform="translate(-51.2, -51.2), scale(19.2)" d="M16,29.627595865064198C18.293001724470912,29.932131272988162,20.042930013943508,27.51525464654883,21.74228032016092,25.945921265821593C23.17912781113853,24.619006666544813,24.116004862142212,22.944088239322657,25.07997618858296,21.242326696713768C26.03653804433288,19.553645576651576,27.508967765642527,17.936240289910035,27.37619710299704,16C27.24418377924559,14.074804243954095,25.35688314355699,12.826040588451118,24.388408046584885,11.156950356231796C23.422462992041893,9.492220452036115,23.234103168955528,7.299525018612156,21.673892759614525,6.172529463650465C20.086427668777606,5.025846881404569,17.952676536483796,5.245963325506762,16,5.097704420487085C13.904705473865436,4.938617102985019,11.720948318469128,4.406561462962571,9.805861497918768,5.271437405276718C7.835759266424433,6.161158960265643,6.77450749800399,8.210547689403446,5.404570729269171,9.88272605836391C3.786675521881844,11.857568569917504,1.2479844307339272,13.457563606660568,1.0164568225542716,15.999999999999996C0.7852769126703186,18.53861827070668,2.2843201202310857,21.147645068478255,4.2286000797387775,22.796220912701543C6.055418616735157,24.345199956148626,9.004070367639248,23.327076622972086,11.075621527102253,24.529273710757323C13.15457643101738,25.735767462893996,13.617241881878751,29.311139838127005,16,29.627595865064198" fill="#7ed0ec" strokewidth="0"/>
</g>
<g id="SVGRepo_tracerCarrier" stroke-linecap="round" stroke-linejoin="round"/>
<g id="SVGRepo_iconCarrier"> <g> <path style="fill:#2D527C;" d="M60.76,139.885c-7.812,0-14.144-6.332-14.144-14.144V60.76c0-7.812,6.332-14.144,14.144-14.144 h64.98c7.812,0,14.144,6.332,14.144,14.144s-6.332,14.144-14.144,14.144H74.903v50.837 C74.903,133.553,68.571,139.885,60.76,139.885z"/> <path style="fill:#2D527C;" d="M451.239,465.384H386.26c-7.81,0-14.144-6.332-14.144-14.144s6.334-14.144,14.144-14.144h50.835 V386.26c0-7.812,6.334-14.144,14.144-14.144c7.81,0,14.144,6.332,14.144,14.144v64.98 C465.383,459.05,459.05,465.384,451.239,465.384z"/> <path style="fill:#2D527C;" d="M497.856,512H14.144C6.332,512,0,505.668,0,497.856V14.144C0,6.332,6.332,0,14.144,0h483.713 C505.667,0,512,6.332,512,14.144v483.713C512,505.668,505.667,512,497.856,512z M28.287,483.713h455.425V28.287H28.287V483.713z"/> </g> <path style="fill:#CEE8FA;" d="M393.893,207.912v-89.805H118.107v275.787h275.787v-77.783 M339.651,287.116h-52.535v52.535h-62.232 v-52.535h-52.535v-62.232h52.535v-52.535h62.232v52.535h52.535V287.116z"/> <path style="fill:#2D527C;" d="M393.893,408.037H118.107c-7.812,0-14.144-6.332-14.144-14.144V118.107 c0-7.812,6.332-14.144,14.144-14.144h275.787c7.81,0,14.144,6.332,14.144,14.144v89.805c0,7.812-6.334,14.144-14.144,14.144 s-14.144-6.332-14.144-14.144V132.25h-247.5v247.5h247.5v-63.639c0-7.812,6.334-14.144,14.144-14.144s14.144,6.332,14.144,14.144 v77.783C408.037,401.705,401.705,408.037,393.893,408.037z M287.116,353.795h-62.232c-7.812,0-14.144-6.332-14.144-14.144V301.26 h-38.392c-7.812,0-14.144-6.332-14.144-14.144v-62.232c0-7.812,6.332-14.144,14.144-14.144h38.392v-38.392 c0-7.812,6.332-14.144,14.144-14.144h62.232c7.81,0,14.144,6.332,14.144,14.144v38.392h38.393c7.81,0,14.144,6.332,14.144,14.144 v62.232c0,7.812-6.334,14.144-14.144,14.144H301.26v38.392C301.26,347.463,294.926,353.795,287.116,353.795z M239.028,325.508 h33.945v-38.392c0-7.812,6.334-14.144,14.144-14.144h38.393v-33.945h-38.393c-7.81,0-14.144-6.332-14.144-14.144v-38.392h-33.945 v38.392c0,7.812-6.332,14.144-14.144,14.144h-38.392v33.945h38.392c7.812,0,14.144,6.332,14.144,14.144V325.508z"/> </g>
</svg>